<?xml version="1.0" encoding="UTF-8" standalone="no"?>
<svg
   xmlns:dc="http://purl.org/dc/elements/1.1/"
   xmlns:cc="http://creativecommons.org/ns#"
   xmlns:rdf="http://www.w3.org/1999/02/22-rdf-syntax-ns#"
   xmlns:svg="http://www.w3.org/2000/svg"
   xmlns="http://www.w3.org/2000/svg"
   xmlns:sodipodi="http://sodipodi.sourceforge.net/DTD/sodipodi-0.dtd"
   xmlns:inkscape="http://www.inkscape.org/namespaces/inkscape"
   sodipodi:docname="splash.svg"
   inkscape:version="1.0beta2 (unknown)"
   id="svg862"
   version="1.1"
   viewBox="0 0 52.916667 52.916666"
   height="200"
   width="200"
   inkscape:export-filename="/home/kirpal/projects/wikihuh/assets/splash.png"
   inkscape:export-xdpi="691.20001"
   inkscape:export-ydpi="691.20001">
  <defs
     id="defs856">
    <rect
       id="rect1499"
       height="21.224234"
       width="61.40804"
       y="18.507843"
       x="2.3392338" />
  </defs>
  <sodipodi:namedview
     inkscape:window-maximized="1"
     inkscape:window-y="0"
     inkscape:window-x="0"
     inkscape:window-height="1003"
     inkscape:window-width="1920"
     units="px"
     showgrid="false"
     inkscape:document-rotation="0"
     inkscape:current-layer="layer1"
     inkscape:document-units="px"
     inkscape:cy="98.909905"
     inkscape:cx="78.498362"
     inkscape:zoom="2.5429281"
     inkscape:pageshadow="2"
     inkscape:pageopacity="0.0"
     borderopacity="1.0"
     bordercolor="#666666"
     pagecolor="#ffffff"
     id="base" />
  <metadata
     id="metadata859">
    <rdf:RDF>
      <cc:Work
         rdf:about="">
        <dc:format>image/svg+xml</dc:format>
        <dc:type
           rdf:resource="http://purl.org/dc/dcmitype/StillImage" />
        <dc:title />
      </cc:Work>
    </rdf:RDF>
  </metadata>
  <g
     id="layer1"
     inkscape:groupmode="layer"
     inkscape:label="Layer 1">
    <rect
       style="fill:#7fec7c;fill-opacity:1;stroke:none;stroke-width:110.243;stroke-linecap:round;stroke-linejoin:round;stroke-opacity:0.05;paint-order:stroke markers fill"
       id="rect833"
       width="52.916668"
       height="52.916668"
       x="-61.890278"
       y="-0.80341935" />
    <g
       inkscape:label="Layer 1"
       id="layer1-3"
       transform="matrix(0.1818182,0,0,0.1818182,2.4052996,2.4052996)">
      <g
         id="g900">
        <circle
           r="37.041668"
           style="fill:none;fill-opacity:0;stroke:#ffffff;stroke-width:26.4583;stroke-linecap:round;stroke-linejoin:round;stroke-miterlimit:4;stroke-dasharray:none;stroke-opacity:0.2;paint-order:stroke markers fill"
           id="circle837"
           cx="132.29167"
           cy="132.29167" />
        <circle
           r="84.666664"
           style="fill:none;fill-opacity:0;stroke:#ffffff;stroke-width:26.4583;stroke-linecap:round;stroke-linejoin:round;stroke-miterlimit:4;stroke-dasharray:none;stroke-opacity:0.1;paint-order:stroke markers fill"
           id="circle841"
           cx="132.29167"
           cy="132.29167" />
        <circle
           r="132.29167"
           style="fill:none;fill-opacity:0;stroke:#ffffff;stroke-width:26.4583;stroke-linecap:round;stroke-linejoin:round;stroke-miterlimit:4;stroke-dasharray:none;stroke-opacity:0.05;paint-order:stroke markers fill"
           id="circle845"
           cx="132.29167"
           cy="132.29167" />
      </g>
      <g
         aria-label="?"
         transform="matrix(1.4102308,0,0,1.4102308,296.28093,17.347873)"
         id="text888"
         style="font-style:normal;font-variant:normal;font-weight:normal;font-stretch:normal;font-size:10.5833px;line-height:1.25;font-family:mer;-inkscape-font-specification:mer;letter-spacing:0px;word-spacing:0px;white-space:pre;shape-inside:url(#rect890);fill:#ffffff;fill-opacity:0.5;stroke:none">
        <path
           d="m -81.594202,52.098283 h 1.860345 l -0.361733,1.839675 h -1.860346 z m 2.010207,-0.764808 h -1.865514 l 0.04134,-0.253214 q 0.08268,-0.41341 0.30489,-0.733803 0.227376,-0.325561 0.904335,-0.852659 l 0.382404,-0.299722 q 0.408243,-0.315225 0.594277,-0.589109 0.186035,-0.273885 0.186035,-0.552936 0,-0.294555 -0.211873,-0.449584 -0.206705,-0.160196 -0.599444,-0.160196 -0.413411,0 -0.935341,0.175699 -0.516763,0.170532 -1.11104,0.511595 l 0.320393,-1.622635 q 0.656289,-0.21704 1.19889,-0.320393 0.5426,-0.103352 1.04386,-0.103352 1.00252,0 1.570959,0.444416 0.568439,0.439248 0.568439,1.209224 0,0.614948 -0.273884,1.100705 -0.273885,0.485757 -0.935341,1.012855 l -0.39274,0.310057 q -0.41341,0.320393 -0.563271,0.521931 -0.144693,0.196369 -0.186034,0.418577 z"
           style="font-style:italic;font-variant:normal;font-weight:900;font-stretch:normal;font-family:mer;-inkscape-font-specification:'mer Heavy Italic';fill:#ffffff;fill-opacity:0.5"
           id="path894"
           inkscape:connector-curvature="0" />
      </g>
      <g
         style="font-style:normal;font-variant:normal;font-weight:normal;font-stretch:normal;font-size:10.5833px;line-height:1.25;font-family:mer;-inkscape-font-specification:mer;letter-spacing:0px;word-spacing:0px;white-space:pre;shape-inside:url(#rect890);fill:#ffffff;fill-opacity:0.5;stroke:none"
         id="g904"
         transform="matrix(1.0995027,-0.88308818,0.88308818,1.0995027,126.39365,-56.617425)"
         aria-label="?">
        <path
           inkscape:connector-curvature="0"
           id="path902"
           style="font-style:italic;font-variant:normal;font-weight:900;font-stretch:normal;font-family:mer;-inkscape-font-specification:'mer Heavy Italic';fill:#ffffff;fill-opacity:0.5"
           d="m -81.594202,52.098283 h 1.860345 l -0.361733,1.839675 h -1.860346 z m 2.010207,-0.764808 h -1.865514 l 0.04134,-0.253214 q 0.08268,-0.41341 0.30489,-0.733803 0.227376,-0.325561 0.904335,-0.852659 l 0.382404,-0.299722 q 0.408243,-0.315225 0.594277,-0.589109 0.186035,-0.273885 0.186035,-0.552936 0,-0.294555 -0.211873,-0.449584 -0.206705,-0.160196 -0.599444,-0.160196 -0.413411,0 -0.935341,0.175699 -0.516763,0.170532 -1.11104,0.511595 l 0.320393,-1.622635 q 0.656289,-0.21704 1.19889,-0.320393 0.5426,-0.103352 1.04386,-0.103352 1.00252,0 1.570959,0.444416 0.568439,0.439248 0.568439,1.209224 0,0.614948 -0.273884,1.100705 -0.273885,0.485757 -0.935341,1.012855 l -0.39274,0.310057 q -0.41341,0.320393 -0.563271,0.521931 -0.144693,0.196369 -0.186034,0.418577 z" />
      </g>
      <g
         aria-label="?"
         transform="matrix(1.4060455,0.10856801,-0.10856801,1.4060455,254.61359,-40.671575)"
         id="g908"
         style="font-style:normal;font-variant:normal;font-weight:normal;font-stretch:normal;font-size:10.5833px;line-height:1.25;font-family:mer;-inkscape-font-specification:mer;letter-spacing:0px;word-spacing:0px;white-space:pre;shape-inside:url(#rect890);fill:#ffffff;fill-opacity:0.5;stroke:none">
        <path
           d="m -81.594202,52.098283 h 1.860345 l -0.361733,1.839675 h -1.860346 z m 2.010207,-0.764808 h -1.865514 l 0.04134,-0.253214 q 0.08268,-0.41341 0.30489,-0.733803 0.227376,-0.325561 0.904335,-0.852659 l 0.382404,-0.299722 q 0.408243,-0.315225 0.594277,-0.589109 0.186035,-0.273885 0.186035,-0.552936 0,-0.294555 -0.211873,-0.449584 -0.206705,-0.160196 -0.599444,-0.160196 -0.413411,0 -0.935341,0.175699 -0.516763,0.170532 -1.11104,0.511595 l 0.320393,-1.622635 q 0.656289,-0.21704 1.19889,-0.320393 0.5426,-0.103352 1.04386,-0.103352 1.00252,0 1.570959,0.444416 0.568439,0.439248 0.568439,1.209224 0,0.614948 -0.273884,1.100705 -0.273885,0.485757 -0.935341,1.012855 l -0.39274,0.310057 q -0.41341,0.320393 -0.563271,0.521931 -0.144693,0.196369 -0.186034,0.418577 z"
           style="font-style:italic;font-variant:normal;font-weight:900;font-stretch:normal;font-family:mer;-inkscape-font-specification:'mer Heavy Italic';fill:#ffffff;fill-opacity:0.5"
           id="path906"
           inkscape:connector-curvature="0" />
      </g>
      <g
         style="font-style:normal;font-variant:normal;font-weight:normal;font-stretch:normal;font-size:10.5833px;line-height:1.25;font-family:mer;-inkscape-font-specification:mer;letter-spacing:0px;word-spacing:0px;white-space:pre;shape-inside:url(#rect890);fill:#ffffff;fill-opacity:0.5;stroke:none"
         id="g912"
         transform="matrix(1.1116309,-0.86777161,0.86777161,1.1116309,231.40128,73.729094)"
         aria-label="?">
        <path
           inkscape:connector-curvature="0"
           id="path910"
           style="font-style:italic;font-variant:normal;font-weight:900;font-stretch:normal;font-family:mer;-inkscape-font-specification:'mer Heavy Italic';fill:#ffffff;fill-opacity:0.5"
           d="m -81.594202,52.098283 h 1.860345 l -0.361733,1.839675 h -1.860346 z m 2.010207,-0.764808 h -1.865514 l 0.04134,-0.253214 q 0.08268,-0.41341 0.30489,-0.733803 0.227376,-0.325561 0.904335,-0.852659 l 0.382404,-0.299722 q 0.408243,-0.315225 0.594277,-0.589109 0.186035,-0.273885 0.186035,-0.552936 0,-0.294555 -0.211873,-0.449584 -0.206705,-0.160196 -0.599444,-0.160196 -0.413411,0 -0.935341,0.175699 -0.516763,0.170532 -1.11104,0.511595 l 0.320393,-1.622635 q 0.656289,-0.21704 1.19889,-0.320393 0.5426,-0.103352 1.04386,-0.103352 1.00252,0 1.570959,0.444416 0.568439,0.439248 0.568439,1.209224 0,0.614948 -0.273884,1.100705 -0.273885,0.485757 -0.935341,1.012855 l -0.39274,0.310057 q -0.41341,0.320393 -0.563271,0.521931 -0.144693,0.196369 -0.186034,0.418577 z" />
      </g>
      <g
         style="font-style:normal;font-variant:normal;font-weight:normal;font-stretch:normal;font-size:10.5833px;line-height:1.25;font-family:mer;-inkscape-font-specification:mer;letter-spacing:0px;word-spacing:0px;white-space:pre;shape-inside:url(#rect890);fill:#ffffff;fill-opacity:0.5;stroke:none"
         id="g916"
         transform="matrix(1.3933547,0.21751696,-0.21751696,1.3933547,217.98954,152.28809)"
         aria-label="?">
        <path
           inkscape:connector-curvature="0"
           id="path914"
           style="font-style:italic;font-variant:normal;font-weight:900;font-stretch:normal;font-family:mer;-inkscape-font-specification:'mer Heavy Italic';fill:#ffffff;fill-opacity:0.5"
           d="m -81.594202,52.098283 h 1.860345 l -0.361733,1.839675 h -1.860346 z m 2.010207,-0.764808 h -1.865514 l 0.04134,-0.253214 q 0.08268,-0.41341 0.30489,-0.733803 0.227376,-0.325561 0.904335,-0.852659 l 0.382404,-0.299722 q 0.408243,-0.315225 0.594277,-0.589109 0.186035,-0.273885 0.186035,-0.552936 0,-0.294555 -0.211873,-0.449584 -0.206705,-0.160196 -0.599444,-0.160196 -0.413411,0 -0.935341,0.175699 -0.516763,0.170532 -1.11104,0.511595 l 0.320393,-1.622635 q 0.656289,-0.21704 1.19889,-0.320393 0.5426,-0.103352 1.04386,-0.103352 1.00252,0 1.570959,0.444416 0.568439,0.439248 0.568439,1.209224 0,0.614948 -0.273884,1.100705 -0.273885,0.485757 -0.935341,1.012855 l -0.39274,0.310057 q -0.41341,0.320393 -0.563271,0.521931 -0.144693,0.196369 -0.186034,0.418577 z" />
      </g>
    </g>
    <text
       transform="matrix(0.77927485,0,0,0.77927485,3.6167367,8.1669058)"
       style="font-style:normal;font-variant:normal;font-weight:normal;font-stretch:normal;font-size:10.5833px;line-height:1.25;font-family:Montserrat;-inkscape-font-specification:Montserrat;letter-spacing:0px;word-spacing:0px;white-space:pre;shape-inside:url(#rect1499);fill:#000000;fill-opacity:1;stroke:none;"
       id="text1497"
       xml:space="preserve"><tspan
         sodipodi:role="line"
         x="2.3398438"
         y="28.234855"><tspan
           style="font-style:normal;font-variant:normal;font-weight:900;font-stretch:normal;font-family:Merriweather;-inkscape-font-specification:'Merriweather Heavy';fill:#ffffff;fill-opacity:1">wiki</tspan><tspan
           style="font-style:normal;font-variant:normal;font-weight:900;font-stretch:normal;font-family:Merriweather;-inkscape-font-specification:'Merriweather Heavy'">HUH?</tspan></tspan></text>
  </g>
</svg>
