<?xml version="1.0" encoding="UTF-8" standalone="no"?>
<svg
   xmlns:dc="http://purl.org/dc/elements/1.1/"
   xmlns:cc="http://creativecommons.org/ns#"
   xmlns:rdf="http://www.w3.org/1999/02/22-rdf-syntax-ns#"
   xmlns:svg="http://www.w3.org/2000/svg"
   xmlns="http://www.w3.org/2000/svg"
   xmlns:sodipodi="http://sodipodi.sourceforge.net/DTD/sodipodi-0.dtd"
   xmlns:inkscape="http://www.inkscape.org/namespaces/inkscape"
   sodipodi:docname="icon.svg"
   inkscape:version="1.0beta2 (unknown)"
   id="svg8"
   version="1.1"
   viewBox="0 0 12.7 12.7"
   height="48"
   width="48"
   inkscape:export-filename="/home/kirpal/projects/wikihuh/assets/icons/icon_android.png"
   inkscape:export-xdpi="2048"
   inkscape:export-ydpi="2048">
  <defs
     id="defs2">
    <rect
       id="rect890"
       height="57.275006"
       width="38.487247"
       y="44.573771"
       x="-83.056915" />
    <filter
       height="1.2213689"
       y="-0.11068447"
       width="1.3340134"
       x="-0.1670067"
       id="filter1468"
       style="color-interpolation-filters:sRGB"
       inkscape:collect="always">
      <feGaussianBlur
         id="feGaussianBlur1470"
         stdDeviation="0.26965772"
         inkscape:collect="always" />
    </filter>
  </defs>
  <sodipodi:namedview
     inkscape:window-maximized="1"
     inkscape:window-y="0"
     inkscape:window-x="0"
     inkscape:window-height="1003"
     inkscape:window-width="1920"
     units="px"
     showgrid="false"
     inkscape:document-rotation="0"
     inkscape:current-layer="layer1"
     inkscape:document-units="px"
     inkscape:cy="27.190081"
     inkscape:cx="16.905935"
     inkscape:zoom="10.120707"
     inkscape:pageshadow="2"
     inkscape:pageopacity="0.0"
     borderopacity="1.0"
     bordercolor="#666666"
     pagecolor="#ffffff"
     id="base" />
  <metadata
     id="metadata5">
    <rdf:RDF>
      <cc:Work
         rdf:about="">
        <dc:format>image/svg+xml</dc:format>
        <dc:type
           rdf:resource="http://purl.org/dc/dcmitype/StillImage" />
        <dc:title />
      </cc:Work>
    </rdf:RDF>
  </metadata>
  <g
     id="layer1"
     inkscape:groupmode="layer"
     inkscape:label="Layer 1">
    <path
       style="display:inline;fill:#7fec7c;fill-opacity:1;stroke:none;stroke-width:0.0124024;stroke-opacity:1"
       id="path5"
       d="m 4.368161,-9.9999999e-8 h 3.963677 c 1.257791,0 1.886686,0 2.563669,0.214059999999999 0.739149,0.269028 1.321406,0.851284 1.590434,1.590434 C 12.7,2.4814729 12.7,3.1103679 12.7,4.3681602 v 3.9636789 c 0,1.257793 0,1.8866879 -0.214059,2.5636679 -0.269028,0.73915 -0.851285,1.321404 -1.590434,1.590432 C 10.218524,12.7 9.589629,12.7 8.331838,12.7 H 4.368161 C 3.11037,12.7 2.481475,12.7 1.804492,12.485939 1.065344,12.216911 0.483087,11.634657 0.214059,10.895507 0,10.218527 0,9.5896321 0,8.3318391 V 4.3681602 C 0,3.1103679 0,2.4814729 0.214059,1.8044939 0.483087,1.0653439 1.065344,0.4830879 1.804492,0.2140599 2.481475,-9.9999999e-8 3.11037,-9.9999999e-8 4.368161,-9.9999999e-8 v 0"
       inkscape:connector-curvature="0" />
    <rect
       y="-0.94456118"
       x="13.725456"
       height="12.7"
       width="12.7"
       id="rect833"
       style="fill:#7fec7c;fill-opacity:1;stroke:none;stroke-width:26.4583;stroke-linecap:round;stroke-linejoin:round;stroke-opacity:0.05;paint-order:stroke markers fill" />
    <g
       transform="matrix(0.04363637,0,0,0.04363637,0.57727166,0.57727166)"
       id="layer1-3"
       inkscape:label="Layer 1">
      <g
         id="g900">
        <circle
           cy="132.29167"
           cx="132.29167"
           id="circle837"
           style="fill:none;fill-opacity:0;stroke:#ffffff;stroke-width:26.4583;stroke-linecap:round;stroke-linejoin:round;stroke-miterlimit:4;stroke-dasharray:none;stroke-opacity:0.2;paint-order:stroke markers fill"
           r="37.041668" />
        <circle
           cy="132.29167"
           cx="132.29167"
           id="circle841"
           style="fill:none;fill-opacity:0;stroke:#ffffff;stroke-width:26.4583;stroke-linecap:round;stroke-linejoin:round;stroke-miterlimit:4;stroke-dasharray:none;stroke-opacity:0.1;paint-order:stroke markers fill"
           r="84.666664" />
        <circle
           cy="132.29167"
           cx="132.29167"
           id="circle845"
           style="fill:none;fill-opacity:0;stroke:#ffffff;stroke-width:26.4583;stroke-linecap:round;stroke-linejoin:round;stroke-miterlimit:4;stroke-dasharray:none;stroke-opacity:0.05;paint-order:stroke markers fill"
           r="132.29167" />
      </g>
      <g
         style="font-style:normal;font-variant:normal;font-weight:normal;font-stretch:normal;font-size:10.5833px;line-height:1.25;font-family:mer;-inkscape-font-specification:mer;letter-spacing:0px;word-spacing:0px;white-space:pre;shape-inside:url(#rect890);fill:#ffffff;fill-opacity:0.5;stroke:none"
         id="text888"
         transform="matrix(1.4102308,0,0,1.4102308,296.28093,17.347873)"
         aria-label="?">
        <path
           inkscape:connector-curvature="0"
           id="path894"
           style="font-style:italic;font-variant:normal;font-weight:900;font-stretch:normal;font-family:mer;-inkscape-font-specification:'mer Heavy Italic';fill:#ffffff;fill-opacity:0.5"
           d="m -81.594202,52.098283 h 1.860345 l -0.361733,1.839675 h -1.860346 z m 2.010207,-0.764808 h -1.865514 l 0.04134,-0.253214 q 0.08268,-0.41341 0.30489,-0.733803 0.227376,-0.325561 0.904335,-0.852659 l 0.382404,-0.299722 q 0.408243,-0.315225 0.594277,-0.589109 0.186035,-0.273885 0.186035,-0.552936 0,-0.294555 -0.211873,-0.449584 -0.206705,-0.160196 -0.599444,-0.160196 -0.413411,0 -0.935341,0.175699 -0.516763,0.170532 -1.11104,0.511595 l 0.320393,-1.622635 q 0.656289,-0.21704 1.19889,-0.320393 0.5426,-0.103352 1.04386,-0.103352 1.00252,0 1.570959,0.444416 0.568439,0.439248 0.568439,1.209224 0,0.614948 -0.273884,1.100705 -0.273885,0.485757 -0.935341,1.012855 l -0.39274,0.310057 q -0.41341,0.320393 -0.563271,0.521931 -0.144693,0.196369 -0.186034,0.418577 z" />
      </g>
      <g
         aria-label="?"
         transform="matrix(1.0995027,-0.88308818,0.88308818,1.0995027,126.39365,-56.617425)"
         id="g904"
         style="font-style:normal;font-variant:normal;font-weight:normal;font-stretch:normal;font-size:10.5833px;line-height:1.25;font-family:mer;-inkscape-font-specification:mer;letter-spacing:0px;word-spacing:0px;white-space:pre;shape-inside:url(#rect890);fill:#ffffff;fill-opacity:0.5;stroke:none">
        <path
           d="m -81.594202,52.098283 h 1.860345 l -0.361733,1.839675 h -1.860346 z m 2.010207,-0.764808 h -1.865514 l 0.04134,-0.253214 q 0.08268,-0.41341 0.30489,-0.733803 0.227376,-0.325561 0.904335,-0.852659 l 0.382404,-0.299722 q 0.408243,-0.315225 0.594277,-0.589109 0.186035,-0.273885 0.186035,-0.552936 0,-0.294555 -0.211873,-0.449584 -0.206705,-0.160196 -0.599444,-0.160196 -0.413411,0 -0.935341,0.175699 -0.516763,0.170532 -1.11104,0.511595 l 0.320393,-1.622635 q 0.656289,-0.21704 1.19889,-0.320393 0.5426,-0.103352 1.04386,-0.103352 1.00252,0 1.570959,0.444416 0.568439,0.439248 0.568439,1.209224 0,0.614948 -0.273884,1.100705 -0.273885,0.485757 -0.935341,1.012855 l -0.39274,0.310057 q -0.41341,0.320393 -0.563271,0.521931 -0.144693,0.196369 -0.186034,0.418577 z"
           style="font-style:italic;font-variant:normal;font-weight:900;font-stretch:normal;font-family:mer;-inkscape-font-specification:'mer Heavy Italic';fill:#ffffff;fill-opacity:0.5"
           id="path902"
           inkscape:connector-curvature="0" />
      </g>
      <g
         style="font-style:normal;font-variant:normal;font-weight:normal;font-stretch:normal;font-size:10.5833px;line-height:1.25;font-family:mer;-inkscape-font-specification:mer;letter-spacing:0px;word-spacing:0px;white-space:pre;shape-inside:url(#rect890);fill:#ffffff;fill-opacity:0.5;stroke:none"
         id="g908"
         transform="matrix(1.4060455,0.10856801,-0.10856801,1.4060455,254.61359,-40.671575)"
         aria-label="?">
        <path
           inkscape:connector-curvature="0"
           id="path906"
           style="font-style:italic;font-variant:normal;font-weight:900;font-stretch:normal;font-family:mer;-inkscape-font-specification:'mer Heavy Italic';fill:#ffffff;fill-opacity:0.5"
           d="m -81.594202,52.098283 h 1.860345 l -0.361733,1.839675 h -1.860346 z m 2.010207,-0.764808 h -1.865514 l 0.04134,-0.253214 q 0.08268,-0.41341 0.30489,-0.733803 0.227376,-0.325561 0.904335,-0.852659 l 0.382404,-0.299722 q 0.408243,-0.315225 0.594277,-0.589109 0.186035,-0.273885 0.186035,-0.552936 0,-0.294555 -0.211873,-0.449584 -0.206705,-0.160196 -0.599444,-0.160196 -0.413411,0 -0.935341,0.175699 -0.516763,0.170532 -1.11104,0.511595 l 0.320393,-1.622635 q 0.656289,-0.21704 1.19889,-0.320393 0.5426,-0.103352 1.04386,-0.103352 1.00252,0 1.570959,0.444416 0.568439,0.439248 0.568439,1.209224 0,0.614948 -0.273884,1.100705 -0.273885,0.485757 -0.935341,1.012855 l -0.39274,0.310057 q -0.41341,0.320393 -0.563271,0.521931 -0.144693,0.196369 -0.186034,0.418577 z" />
      </g>
      <g
         aria-label="?"
         transform="matrix(1.1116309,-0.86777161,0.86777161,1.1116309,231.40128,73.729094)"
         id="g912"
         style="font-style:normal;font-variant:normal;font-weight:normal;font-stretch:normal;font-size:10.5833px;line-height:1.25;font-family:mer;-inkscape-font-specification:mer;letter-spacing:0px;word-spacing:0px;white-space:pre;shape-inside:url(#rect890);fill:#ffffff;fill-opacity:0.5;stroke:none">
        <path
           d="m -81.594202,52.098283 h 1.860345 l -0.361733,1.839675 h -1.860346 z m 2.010207,-0.764808 h -1.865514 l 0.04134,-0.253214 q 0.08268,-0.41341 0.30489,-0.733803 0.227376,-0.325561 0.904335,-0.852659 l 0.382404,-0.299722 q 0.408243,-0.315225 0.594277,-0.589109 0.186035,-0.273885 0.186035,-0.552936 0,-0.294555 -0.211873,-0.449584 -0.206705,-0.160196 -0.599444,-0.160196 -0.413411,0 -0.935341,0.175699 -0.516763,0.170532 -1.11104,0.511595 l 0.320393,-1.622635 q 0.656289,-0.21704 1.19889,-0.320393 0.5426,-0.103352 1.04386,-0.103352 1.00252,0 1.570959,0.444416 0.568439,0.439248 0.568439,1.209224 0,0.614948 -0.273884,1.100705 -0.273885,0.485757 -0.935341,1.012855 l -0.39274,0.310057 q -0.41341,0.320393 -0.563271,0.521931 -0.144693,0.196369 -0.186034,0.418577 z"
           style="font-style:italic;font-variant:normal;font-weight:900;font-stretch:normal;font-family:mer;-inkscape-font-specification:'mer Heavy Italic';fill:#ffffff;fill-opacity:0.5"
           id="path910"
           inkscape:connector-curvature="0" />
      </g>
      <g
         aria-label="?"
         transform="matrix(1.3933547,0.21751696,-0.21751696,1.3933547,217.98954,152.28809)"
         id="g916"
         style="font-style:normal;font-variant:normal;font-weight:normal;font-stretch:normal;font-size:10.5833px;line-height:1.25;font-family:mer;-inkscape-font-specification:mer;letter-spacing:0px;word-spacing:0px;white-space:pre;shape-inside:url(#rect890);fill:#ffffff;fill-opacity:0.5;stroke:none">
        <path
           d="m -81.594202,52.098283 h 1.860345 l -0.361733,1.839675 h -1.860346 z m 2.010207,-0.764808 h -1.865514 l 0.04134,-0.253214 q 0.08268,-0.41341 0.30489,-0.733803 0.227376,-0.325561 0.904335,-0.852659 l 0.382404,-0.299722 q 0.408243,-0.315225 0.594277,-0.589109 0.186035,-0.273885 0.186035,-0.552936 0,-0.294555 -0.211873,-0.449584 -0.206705,-0.160196 -0.599444,-0.160196 -0.413411,0 -0.935341,0.175699 -0.516763,0.170532 -1.11104,0.511595 l 0.320393,-1.622635 q 0.656289,-0.21704 1.19889,-0.320393 0.5426,-0.103352 1.04386,-0.103352 1.00252,0 1.570959,0.444416 0.568439,0.439248 0.568439,1.209224 0,0.614948 -0.273884,1.100705 -0.273885,0.485757 -0.935341,1.012855 l -0.39274,0.310057 q -0.41341,0.320393 -0.563271,0.521931 -0.144693,0.196369 -0.186034,0.418577 z"
           style="font-style:italic;font-variant:normal;font-weight:900;font-stretch:normal;font-family:mer;-inkscape-font-specification:'mer Heavy Italic';fill:#ffffff;fill-opacity:0.5"
           id="path914"
           inkscape:connector-curvature="0" />
      </g>
    </g>
    <text
       transform="rotate(13.975383)"
       id="text837"
       y="7.2209368"
       x="6.3149953"
       style="font-style:normal;font-variant:normal;font-weight:normal;font-stretch:normal;font-size:4.87973px;line-height:1.25;font-family:Montserrat;-inkscape-font-specification:Montserrat;letter-spacing:0px;word-spacing:0px;fill:#000000;fill-opacity:0.05851598;stroke:none;stroke-width:0.18299;filter:url(#filter1468);"
       xml:space="preserve"><tspan
         style="font-style:normal;font-variant:normal;font-weight:900;font-stretch:normal;font-size:5.85567px;font-family:Merriweather;-inkscape-font-specification:'Merriweather Heavy';fill:#000000;fill-opacity:0.05851598;stroke-width:0.18299;"
         y="7.2209368"
         x="6.3149953"
         id="tspan835"
         sodipodi:role="line">?</tspan></text>
    <path
       inkscape:connector-curvature="0"
       d="M 18.47242,-0.39937578 V 5.9506241 a 6.3499999,6.3499999 0 0 1 6.294189,-6.34999988 z m 6.35,0 a 6.3499999,6.3499999 0 0 1 6.35,6.29418928 v -6.29418928 z m 6.35,6.34999988 a 6.3499999,6.3499999 0 0 1 -6.29419,6.3499999 h 6.29419 z m -12.7,0.055811 v 6.2941889 h 6.35 a 6.3499999,6.3499999 0 0 1 -6.35,-6.2941889 z"
       style="fill:#ff01fa;fill-opacity:1;stroke:none;stroke-width:26.4583;stroke-linecap:round;stroke-linejoin:round;stroke-opacity:0.05;paint-order:stroke markers fill"
       id="rect937" />
    <path
       inkscape:connector-curvature="0"
       d="m 16.23173,6.0064351 v 2.2406901 c 0,-1.2413783 0.999312,-2.2406901 2.24069,-2.2406901 z m 10.45931,0 c 1.241378,0 2.24069,0.9993118 2.24069,2.2406901 V 6.0064351 Z M 16.23173,16.465745 v 2.24069 h 2.24069 c -1.241378,0 -2.24069,-0.999312 -2.24069,-2.24069 z m 12.7,0 c 0,1.241378 -0.999312,2.24069 -2.24069,2.24069 h 2.24069 z"
       style="fill:#ff01fa;fill-opacity:1;stroke:none;stroke-width:26.4583;stroke-linecap:round;stroke-linejoin:round;stroke-opacity:0.05;paint-order:stroke markers fill"
       id="rect988" />
    <path
       style="opacity:1;fill:#000000;fill-opacity:1;stroke:none;stroke-width:0.192424;stroke-linecap:round;stroke-linejoin:round;stroke-miterlimit:4;stroke-dasharray:none;stroke-opacity:1;paint-order:normal"
       d="M -14.161152,-1.6642871 V 11.035713 H -1.4611519 V -1.6642871 Z m 6.3500001,2.46944452 c 2.149828,0 3.880556,1.73072778 3.880556,3.88055548 0,2.149828 -1.730728,3.880556 -3.880556,3.880556 -2.1498277,0 -3.8805551,-1.730728 -3.8805551,-3.880556 0,-2.1498277 1.7307274,-3.88055548 3.8805551,-3.88055548 z"
       id="rect4708"
       inkscape:connector-curvature="0" />
    <text
       xml:space="preserve"
       style="font-style:normal;font-variant:normal;font-weight:normal;font-stretch:normal;font-size:4.87973px;line-height:1.25;font-family:Montserrat;-inkscape-font-specification:Montserrat;letter-spacing:0px;word-spacing:0px;fill:#fffffa;fill-opacity:1;stroke:none;stroke-width:0.18299"
       x="6.3149953"
       y="7.2209368"
       id="text1466"
       transform="rotate(13.975383)"><tspan
         sodipodi:role="line"
         id="tspan1464"
         x="6.3149953"
         y="7.2209368"
         style="font-style:normal;font-variant:normal;font-weight:900;font-stretch:normal;font-size:5.85567px;font-family:Merriweather;-inkscape-font-specification:'Merriweather Heavy';fill:#fffffa;fill-opacity:1;stroke-width:0.18299">?</tspan></text>
  </g>
</svg>
